<svg width="53" height="20" viewBox="0 0 53 20" fill="none" xmlns="http://www.w3.org/2000/svg">
<path d="M20 14.1123V2.14291C20 0.959401 19.0406 0 17.8571 0H2.14286C0.959375 0 0 0.959401 0 2.14291V17.8571C0 19.0406 0.959375 20 2.14286 20H14.1124C14.6807 20 15.2258 19.7742 15.6276 19.3723L19.3724 15.6275C19.7742 15.2256 20 14.6806 20 14.1123V14.1123ZM14.2857 17.6838V14.2856H17.6838L14.2857 17.6838ZM17.8571 2.14291V12.1426H13.2143C12.6225 12.1426 12.1429 12.6223 12.1429 13.2141V17.8571H2.14286V2.14291H17.8571Z" fill="#FE600C"/>
<path d="M26.2268 14H24.9402V7.86392H26.2268V8.96907C26.4357 8.59519 26.7217 8.30378 27.0845 8.09485C27.4584 7.87491 27.8543 7.76495 28.2722 7.76495C28.987 7.76495 29.5533 7.97938 29.9711 8.40825C30.389 8.83711 30.5979 9.44742 30.5979 10.2392V14H29.2949V10.6351C29.2949 9.50241 28.8275 8.93608 27.8928 8.93608C27.4199 8.93608 27.0241 9.09004 26.7052 9.39794C26.3863 9.69485 26.2268 10.1182 26.2268 10.668V14Z" fill="black"/>
<path d="M35.214 12.9443C35.7748 12.9443 36.2366 12.7574 36.5995 12.3835C36.9734 12.0096 37.1604 11.5258 37.1604 10.932C37.1604 10.3381 36.9734 9.8543 36.5995 9.48041C36.2366 9.10653 35.7748 8.91959 35.214 8.91959C34.6531 8.91959 34.1913 9.10653 33.8284 9.48041C33.4655 9.8543 33.2841 10.3381 33.2841 10.932C33.2841 11.5258 33.4655 12.0041 33.8284 12.367C34.1913 12.7519 34.6531 12.9443 35.214 12.9443ZM35.214 14.099C34.2902 14.099 33.5205 13.7966 32.9047 13.1918C32.2889 12.5759 31.981 11.8227 31.981 10.932C31.981 10.0412 32.2889 9.29347 32.9047 8.68866C33.5205 8.07285 34.2902 7.76495 35.214 7.76495C36.1377 7.76495 36.9074 8.07285 37.5232 8.68866C38.139 9.29347 38.4469 10.0412 38.4469 10.932C38.4469 11.7897 38.139 12.5375 37.5232 13.1753C36.9074 13.7911 36.1377 14.099 35.214 14.099Z" fill="black"/>
<path d="M41.4925 8.90309V12.0206C41.4925 12.3175 41.5694 12.554 41.7234 12.7299C41.8883 12.8948 42.1083 12.9773 42.3832 12.9773C42.6361 12.9773 42.9 12.8399 43.1749 12.5649L43.7028 13.4887C43.2409 13.8955 42.7406 14.099 42.2017 14.099C41.6409 14.099 41.1681 13.9065 40.7832 13.5217C40.3983 13.1258 40.2059 12.6144 40.2059 11.9876V8.90309H39.4306V7.86392H40.2059V5.93402H41.4925V7.86392H43.109V8.90309H41.4925Z" fill="black"/>
<path d="M43.9783 15.8309L44.5721 14.7918C44.8471 15.0447 45.1275 15.1711 45.4134 15.1711C45.6883 15.1711 45.9192 15.0667 46.1062 14.8577C46.2931 14.6598 46.3866 14.4344 46.3866 14.1814C46.3866 14.0825 45.5563 11.9766 43.8959 7.86392H45.2814L47.1288 12.3835L48.9598 7.86392H50.3453L47.3598 15.1546C47.1838 15.5505 46.9309 15.8639 46.601 16.0948C46.2711 16.3258 45.9082 16.4412 45.5123 16.4412C44.9405 16.4412 44.4292 16.2378 43.9783 15.8309Z" fill="black"/>
<path d="M51.1806 13.2247C51.1806 12.9828 51.2631 12.7794 51.4281 12.6144C51.593 12.4495 51.7964 12.367 52.0384 12.367C52.2803 12.367 52.4837 12.4495 52.6487 12.6144C52.8246 12.7794 52.9126 12.9828 52.9126 13.2247C52.9126 13.4667 52.8246 13.6756 52.6487 13.8515C52.4837 14.0165 52.2803 14.099 52.0384 14.099C51.7854 14.099 51.5875 14.011 51.4446 13.835C51.2686 13.6701 51.1806 13.4667 51.1806 13.2247Z" fill="#FE600C"/>
</svg>
